<?xml version="1.0" standalone="no"?>
<!DOCTYPE svg PUBLIC "-//W3C//DTD SVG 20010904//EN"
 "http://www.w3.org/TR/2001/REC-SVG-20010904/DTD/svg10.dtd">
<svg version="1.0" xmlns="http://www.w3.org/2000/svg"
 width="488.000000pt" height="610.000000pt" viewBox="0 0 488.000000 610.000000"
 preserveAspectRatio="xMidYMid meet">

<g transform="translate(0.000000,610.000000) scale(0.100000,-0.100000)"
fill="#000000" stroke="none">
<path d="M2254 4870 c-856 -72 -1612 -581 -1990 -1340 -90 -182 -163 -384
-203 -566 -69 -312 -71 -728 -5 -1029 169 -762 678 -1397 1372 -1710 342 -155
639 -219 1017 -219 300 0 522 36 783 126 855 293 1465 1009 1624 1903 28 161
36 536 14 705 -37 279 -108 514 -236 775 -191 392 -471 710 -840 957 -120 80
-378 210 -523 263 -293 107 -699 161 -1013 135z m190 -287 c3 -21 6 -73 6
-115 l0 -78 35 0 c23 0 35 -5 35 -14 0 -10 -16 -15 -51 -18 -28 -1 -52 -1 -54
2 -3 5 -8 232 -6 253 1 4 7 7 15 7 8 0 16 -15 20 -37z m220 29 c2 -4 12 -50
20 -102 9 -52 19 -110 22 -127 4 -28 2 -33 -16 -33 -15 0 -22 8 -26 29 -5 21
-13 30 -33 34 -32 6 -41 1 -41 -23 0 -22 -15 -34 -34 -27 -11 4 -7 29 20 119
19 62 36 119 39 126 5 13 41 17 49 4z m-494 -37 c0 -8 -14 -17 -36 -21 -30 -6
-35 -10 -30 -28 3 -11 6 -27 6 -34 0 -9 11 -13 37 -10 30 2 38 -1 41 -15 3
-12 -3 -17 -20 -17 -40 0 -50 -13 -43 -53 7 -36 8 -37 45 -31 39 6 65 -11 40
-26 -14 -9 -101 -22 -107 -16 -5 5 -43 214 -43 237 0 18 20 24 83 28 18 0 27
-4 27 -14z m814 -14 c4 -5 -5 -61 -19 -125 -14 -64 -25 -118 -25 -121 0 -3 -9
-5 -20 -5 -25 0 -25 5 5 138 14 61 25 113 25 116 0 10 28 7 34 -3z m-1004 -21
c24 -13 62 -137 58 -188 -3 -40 -22 -55 -88 -67 l-36 -6 -33 121 c-18 66 -32
123 -30 125 6 5 73 23 92 24 10 1 27 -4 37 -9z m1130 -100 l5 -95 24 78 c26
81 36 96 53 79 7 -7 -2 -46 -27 -124 -21 -62 -40 -116 -44 -119 -3 -4 -16 -3
-28 2 -22 8 -23 14 -24 106 l-1 98 -27 -84 c-26 -82 -42 -104 -56 -81 -3 5 11
62 32 126 36 109 39 115 63 112 24 -3 25 -5 30 -98z m201 23 c45 -16 58 -30
43 -46 -4 -3 -21 0 -40 8 l-33 14 -11 -35 c-7 -20 -10 -36 -8 -38 1 -1 16 -7
31 -14 16 -7 27 -18 24 -25 -4 -12 -17 -13 -53 -2 -18 6 -24 -1 -42 -44 -20
-49 -52 -70 -52 -34 0 19 81 233 88 233 2 0 26 -8 53 -17z m-1676 -49 c14 -15
22 -30 19 -35 -8 -14 -36 -10 -48 7 -13 17 -41 11 -50 -11 -7 -20 20 -45 48
-45 78 0 135 -65 101 -116 -34 -52 -105 -56 -127 -8 -9 19 -9 27 1 37 9 9 16
7 30 -12 25 -32 56 -25 56 14 0 28 -3 30 -59 41 -69 14 -88 33 -84 84 2 29 9
38 38 52 45 23 46 23 75 -8z m1864 -40 c38 -31 38 -43 5 -114 -55 -118 -99
-146 -158 -99 -33 26 -33 49 0 119 56 120 94 144 153 94z m-1952 -202 c22 -28
24 -35 12 -42 -9 -6 -21 -2 -36 12 -20 18 -26 20 -48 10 -23 -10 -25 -16 -20
-46 5 -25 3 -35 -9 -39 -20 -8 -17 -13 -57 126 -33 117 -33 119 -14 134 19 13
24 10 83 -54 34 -37 75 -83 89 -101z m-299 126 c-4 -39 -25 -48 -34 -14 -7 29
1 46 22 46 11 0 14 -9 12 -32z m2390 -2 c15 -8 38 -26 52 -41 l25 -26 -20 -37
c-12 -22 -29 -38 -42 -40 -13 -2 -20 -8 -17 -17 8 -21 -45 -115 -62 -108 -19
7 -18 27 6 65 25 41 25 55 1 68 -17 8 -23 3 -48 -35 -28 -44 -46 -55 -58 -34
-6 8 122 218 133 219 2 0 15 -6 30 -14z m-2304 -140 c36 -57 66 -108 66 -114
0 -5 -7 -12 -15 -15 -10 -4 -34 25 -80 98 -68 110 -73 120 -52 128 6 3 13 6
13 6 1 1 32 -46 68 -103z m2496 8 c0 -3 -18 -41 -41 -85 -42 -85 -41 -87 31
-30 82 66 75 63 101 42 l23 -19 -78 -96 c-88 -109 -90 -110 -104 -93 -8 9 4
30 44 80 30 37 52 67 49 67 -3 0 -34 -22 -68 -50 -98 -79 -119 -63 -62 50 20
40 35 74 33 76 -3 2 -21 -18 -41 -44 -52 -69 -75 -88 -88 -75 -8 8 11 39 70
112 82 101 82 101 106 85 14 -9 25 -18 25 -20z m-1014 -8 c267 -56 513 -167
717 -323 83 -63 248 -224 307 -298 280 -354 418 -799 381 -1228 -13 -150 -49
-321 -93 -446 -42 -120 -146 -318 -226 -430 -69 -97 -215 -258 -284 -312 l-38
-31 0 76 0 75 48 3 47 3 0 130 0 130 -138 3 -138 3 3 -133 3 -133 45 -5 45 -5
3 -90 c2 -49 1 -99 -2 -110 -9 -35 -232 -163 -398 -229 -65 -25 -241 -76 -265
-76 -10 0 -13 66 -13 298 l0 297 125 125 125 125 0 280 c0 154 4 285 8 290 4
6 23 18 44 27 20 9 49 34 65 54 25 33 28 46 28 109 0 60 -4 78 -25 108 -29 43
-108 87 -154 87 -66 -1 -152 -61 -175 -123 -29 -77 3 -180 70 -224 l39 -26 0
-271 0 -271 -120 -120 -120 -120 0 -327 c0 -315 -1 -328 -20 -338 -27 -14
-276 -24 -382 -16 l-88 8 0 373 0 373 -125 120 -125 119 0 275 0 275 37 24
c57 37 83 82 83 145 0 64 -13 100 -48 137 -40 42 -75 57 -134 57 -65 0 -111
-22 -152 -73 -40 -51 -48 -134 -17 -195 21 -42 69 -85 109 -97 l22 -6 0 -287
0 -287 125 -125 125 -125 0 -342 c0 -206 -4 -343 -9 -343 -5 0 -61 13 -123 29
-171 45 -360 126 -493 214 l-50 32 0 120 0 120 48 3 47 3 0 135 0 134 -135 0
-135 0 0 -135 0 -135 45 0 45 0 0 -85 c0 -47 -4 -85 -9 -85 -19 0 -154 124
-233 214 -201 227 -345 513 -408 811 -28 129 -38 420 -20 562 89 712 619 1307
1321 1482 162 41 262 50 469 46 160 -3 217 -8 316 -29z m-1611 10 c16 -12 17
-16 6 -29 -10 -13 -17 -14 -31 -5 -23 14 -50 4 -50 -20 0 -23 87 -142 104
-142 7 0 21 6 31 14 18 13 18 15 1 41 -14 21 -23 25 -41 21 -32 -8 -37 14 -9
36 12 10 27 18 32 18 12 0 82 -84 82 -98 0 -17 -73 -72 -95 -72 -31 0 -155
141 -155 177 0 23 56 73 82 73 13 0 33 -6 43 -14z m-165 -126 c27 -14 130
-138 130 -156 0 -26 -56 -74 -86 -74 -39 0 -154 122 -154 163 0 54 63 92 110
67z m2954 -193 c-36 -59 -70 -107 -75 -107 -17 0 -21 23 -8 46 11 22 10 27 -8
46 -21 20 -23 20 -48 4 -26 -17 -45 -14 -45 7 0 7 49 42 108 79 103 65 108 67
125 49 17 -17 16 -22 -49 -124z m-2999 -87 c5 0 19 10 32 22 18 17 26 19 35
10 9 -9 4 -20 -22 -47 -19 -20 -40 -34 -46 -33 -6 2 -51 40 -99 86 -74 70 -85
85 -74 98 11 13 23 5 88 -60 42 -42 81 -76 86 -76z m3189 59 c31 -36 32 -49 7
-80 -16 -20 -21 -22 -35 -10 -15 13 -15 16 -1 31 19 21 10 50 -16 50 -10 0
-45 -23 -79 -51 -72 -59 -76 -84 -16 -84 49 0 57 -19 17 -40 -23 -12 -36 -13
-51 -5 -25 13 -50 50 -50 74 0 34 135 146 176 146 13 0 33 -13 48 -31z m-3367
-29 c40 -24 133 -113 133 -127 0 -5 -10 -25 -23 -44 -36 -54 -68 -51 -149 15
-84 70 -94 86 -73 125 27 53 61 63 112 31z m3456 -85 c4 -10 -26 -38 -96 -89
-90 -66 -104 -74 -117 -61 -13 13 -12 17 6 29 11 8 56 41 100 74 84 64 99 71
107 47z m-3448 -161 c21 -13 22 -19 13 -40 -14 -30 -13 -30 -116 2 -46 14 -85
24 -87 22 -2 -2 30 -23 71 -48 70 -43 86 -61 64 -75 -9 -6 -220 124 -220 136
0 4 8 16 18 27 l17 20 90 -28 c49 -16 91 -28 92 -26 2 1 -31 24 -72 50 -69 44
-85 62 -69 79 5 5 61 -29 199 -119z m3522 54 c27 -30 36 -63 24 -86 -11 -20
-128 -94 -169 -106 -17 -6 -29 0 -52 23 -56 55 -38 91 77 157 69 40 92 42 120
12z m91 0 c3 -14 -3 -18 -27 -18 -34 0 -51 18 -30 31 21 14 53 6 57 -13z
m-3859 -142 c15 -17 -1 -30 -39 -30 -18 -1 -26 -7 -28 -22 -3 -18 11 -30 73
-64 61 -34 79 -40 90 -30 21 17 19 37 -5 50 -20 10 -18 40 3 40 18 0 57 -42
57 -61 0 -23 -48 -79 -67 -79 -20 0 -140 66 -170 93 -29 26 -29 56 -2 91 23
29 69 35 88 12z m3871 -41 c0 -7 -32 -40 -71 -74 -39 -33 -68 -61 -64 -61 3 0
40 16 82 35 73 34 93 36 93 12 -1 -11 -29 -26 -178 -93 l-52 -24 -12 26 c-12
25 -9 29 57 90 76 70 71 71 -49 13 -46 -23 -58 -21 -57 7 0 3 51 30 113 59
101 48 114 52 126 37 6 -9 12 -21 12 -27z m-4005 -115 c3 -5 -1 -23 -10 -39
-16 -31 -14 -34 28 -50 24 -9 28 -7 42 20 26 50 47 30 30 -28 -6 -18 -1 -24
26 -36 34 -14 34 -14 52 20 17 32 31 41 41 25 3 -5 -6 -32 -19 -60 l-24 -52
-57 25 c-153 68 -174 79 -174 92 0 20 39 93 50 93 5 0 12 -4 15 -10z m-67
-181 c-3 -32 -3 -32 100 -66 56 -19 102 -38 102 -41 -1 -30 -20 -29 -114 4
-54 19 -102 34 -107 34 -5 0 -11 -11 -15 -25 -3 -14 -10 -25 -15 -25 -21 0
-20 33 1 90 24 65 52 82 48 29z m1592 -594 c75 -39 93 -119 39 -179 -38 -44
-83 -54 -133 -31 -86 41 -88 167 -4 208 41 21 61 21 98 2z m1120 -80 c42 -22
60 -53 60 -106 0 -39 -5 -53 -30 -77 -54 -54 -135 -46 -178 18 -65 97 44 219
148 165z m-1610 -1070 l0 -55 -55 0 -55 0 0 55 0 55 55 0 55 0 0 -55z m2118 3
l-3 -53 -55 0 -55 0 -3 53 -3 52 61 0 61 0 -3 -52z m187 -440 c0 -21 91 -116
123 -129 29 -11 28 -35 -2 -54 -23 -15 -30 -15 -98 5 -40 12 -80 23 -88 26 -8
3 5 -15 29 -40 24 -25 48 -43 52 -41 3 3 12 -1 18 -8 8 -10 4 -20 -18 -41 -30
-29 -51 -28 -51 2 0 19 -104 126 -132 135 -23 8 -23 20 3 43 19 17 23 18 87 1
129 -34 122 -35 77 12 -21 22 -45 41 -51 41 -25 0 -26 22 -3 46 26 27 54 28
54 2z m-315 -127 c0 -30 -24 -71 -42 -71 -16 0 -19 5 -14 23 3 12 6 30 6 40 0
11 8 17 25 17 14 0 25 -4 25 -9z m-2040 -38 c14 -9 26 -17 28 -18 7 -5 -11
-34 -19 -30 -4 3 -30 -26 -56 -66 l-47 -71 23 -19 c13 -11 29 -19 37 -19 17 0
94 113 94 139 0 31 17 34 50 11 34 -24 38 -40 12 -47 -10 -2 -34 -30 -53 -61
-62 -103 -82 -111 -154 -62 -63 43 -65 66 -10 147 25 37 45 75 45 84 0 32 15
36 50 12z m2095 -45 c0 -15 105 -106 148 -129 25 -14 21 -26 -13 -44 -32 -17
-50 -13 -50 10 0 22 -19 28 -51 15 -32 -14 -39 -44 -12 -58 21 -12 12 -34 -21
-51 -29 -16 -36 -13 -40 21 -7 63 -41 178 -52 178 -29 0 -18 27 20 52 45 30
71 32 71 6z m-1805 -118 c79 -40 89 -51 70 -80 -7 -12 -14 -9 -36 15 l-27 29
-39 -78 c-22 -43 -37 -84 -35 -90 11 -29 -9 -38 -46 -20 -40 19 -45 28 -22 41
19 11 87 151 79 164 -3 5 -18 9 -35 9 -30 0 -34 6 -23 34 9 24 26 20 114 -24z
m1600 -10 c25 -25 25 -37 0 -45 -12 -4 -26 0 -36 9 -20 20 -27 20 -55 -3 l-23
-19 32 -68 c17 -38 35 -70 40 -72 5 -1 21 2 35 7 19 7 27 18 27 35 0 24 23 41
41 30 12 -7 11 -41 -1 -64 -13 -25 -92 -54 -125 -46 -21 5 -34 23 -61 81 -48
104 -45 126 20 155 54 24 82 24 106 0z m-1358 -76 c101 -32 97 -30 91 -54 -6
-24 -28 -26 -49 -5 -9 8 -19 15 -24 15 -14 0 -60 -153 -54 -177 7 -27 -13 -30
-60 -10 -28 12 -28 13 -11 30 18 19 69 166 60 175 -2 3 -18 5 -35 4 -22 0 -30
4 -30 17 0 38 6 38 112 5z m1081 -9 c4 -8 2 -17 -3 -20 -10 -6 75 -145 97
-158 20 -12 15 -34 -9 -41 -41 -11 -59 -7 -56 12 6 37 -35 56 -72 32 -12 -7
-13 -15 -3 -40 13 -35 9 -39 -43 -43 -24 -2 -29 2 -27 18 13 98 18 191 12 195
-23 16 -11 34 31 46 61 16 67 16 73 -1z m-823 -48 c56 -11 65 -15 62 -32 -5
-28 -10 -31 -32 -17 -11 7 -33 12 -49 12 -23 0 -30 -5 -35 -27 -8 -31 5 -42
40 -35 20 4 24 0 24 -21 0 -30 -17 -44 -33 -28 -21 21 -45 12 -49 -19 -6 -37
0 -42 57 -42 37 0 45 -3 45 -18 0 -28 -12 -31 -76 -20 -114 20 -121 24 -90 59
17 20 39 143 30 176 -7 30 4 31 106 12z m597 -106 c3 -126 -2 -136 -82 -146
-73 -10 -93 9 -101 100 -3 39 -13 83 -20 99 -8 16 -13 31 -11 32 1 2 22 6 46
10 l43 7 -7 -42 c-9 -57 3 -161 21 -168 8 -3 26 -2 40 1 l26 7 -7 82 c-3 45
-11 84 -16 85 -5 2 -9 12 -9 23 0 15 7 19 38 19 l37 0 2 -109z m-397 69 c0
-11 -4 -20 -10 -20 -5 0 -10 -13 -10 -30 0 -28 2 -30 41 -30 l42 0 -7 50 -7
50 36 0 c37 0 59 -25 35 -40 -10 -6 -12 -33 -8 -109 l5 -101 -39 0 c-31 0 -38
3 -38 20 0 11 5 20 10 20 6 0 10 16 10 35 0 34 -1 35 -41 35 l-42 0 7 -55 6
-55 -35 0 c-37 0 -59 25 -35 40 9 6 11 34 8 109 l-4 101 38 0 c31 0 38 -4 38
-20z"/>
<path d="M2627 4525 c-4 -17 -9 -40 -13 -52 -5 -19 -2 -23 15 -23 17 0 21 6
20 33 0 17 -4 41 -8 52 -7 17 -8 15 -14 -10z"/>
<path d="M1900 4494 c0 -21 40 -157 48 -165 4 -4 17 -3 30 2 27 10 28 33 4
114 -17 56 -20 60 -50 63 -25 3 -32 -1 -32 -14z"/>
<path d="M3423 4337 c-30 -38 -66 -124 -60 -141 4 -9 17 -16 30 -16 20 0 31
13 62 75 32 62 36 77 25 90 -18 21 -36 19 -57 -8z"/>
<path d="M1410 4265 c0 -3 5 -26 11 -51 9 -33 16 -44 26 -40 8 3 17 6 19 6 12
0 0 27 -26 57 -16 18 -30 31 -30 28z"/>
<path d="M3600 4230 l-21 -30 27 -12 c23 -11 28 -10 45 11 18 22 18 25 3 42
-23 25 -29 24 -54 -11z"/>
<path d="M2320 3869 c-311 -35 -614 -171 -844 -380 l-47 -44 45 -44 45 -44 63
57 c178 162 419 276 677 321 112 20 342 19 462 -1 249 -42 470 -146 668 -314
l73 -62 39 38 c21 21 39 43 39 49 0 14 -125 118 -213 179 -88 60 -265 146
-370 180 -183 60 -447 87 -637 65z"/>
<path d="M2352 3429 c-209 -27 -450 -138 -572 -264 l-34 -35 41 -41 41 -41 78
63 c87 69 241 147 344 174 98 26 317 31 422 10 155 -31 312 -106 415 -199 28
-25 55 -46 60 -46 5 0 27 18 48 41 l40 41 -45 40 c-217 197 -541 296 -838 257z"/>
<path d="M2355 3015 c-87 -18 -217 -81 -276 -134 l-44 -40 41 -42 42 -42 64
46 c97 69 155 89 279 95 147 6 246 -24 347 -106 l44 -35 44 43 c51 51 52 50
-53 120 -136 91 -327 128 -488 95z"/>
<path d="M977 4003 c-17 -17 -3 -49 45 -99 56 -59 90 -69 96 -27 2 16 -12 39
-49 78 -48 51 -75 65 -92 48z"/>
<path d="M3952 3902 c-40 -27 -41 -29 -24 -45 16 -15 19 -15 31 6 8 12 21 32
29 45 18 28 16 28 -36 -6z"/>
<path d="M741 3751 c-13 -23 -4 -35 67 -90 58 -44 73 -49 91 -27 18 21 4 42
-61 91 -66 50 -82 54 -97 26z"/>
<path d="M4228 3539 c-70 -41 -83 -64 -53 -89 12 -10 27 -5 86 30 75 44 89 61
69 85 -18 22 -28 19 -102 -26z"/>
<path d="M3511 628 c5 -18 9 -34 9 -36 0 -1 9 3 20 10 19 12 19 13 -2 35 -30
32 -38 29 -27 -9z"/>
<path d="M2996 425 c-16 -43 -1 -67 31 -47 9 6 8 15 -6 36 -15 23 -19 25 -25
11z"/>
</g>
</svg>
